<svg xmlns="http://www.w3.org/2000/svg" viewBox="0 0 24 24" fill="none" stroke="#FFFFFF" stroke-width="2" stroke-linecap="round" stroke-linejoin="round" class="icon icon-tabler icon-tabler-brand-twitter" height="44" width="44">
  <path stroke="none" d="M0 0h24v24H0z" fill="none"/>
  <path d="M8 21c-0.5 0-3.5 -1-5 -3l1 -4c0 -1 0 -2 1 -3l0 -0c0 0 0 0 0 0c0 0 0 0 0 0c-1 0 -3 -1 -4 -3c0 -1 0 -2 1 -3c1 -1 2 -1 3 -1c1 0 2 0 3 1l3 1c1 0 1 0 2 0c1 0 2 0 3 0c3 0 4 0 6 -2c0 2 0 3 0 5c0 2 0 3 -1 5c0 1 0 2 0 3c0 1 0 2 0 3c0 1 0 2 -1 2c-1 1 -2 1 -3 1c-2 0 -4 0 -6 -1c-2 0 -3 0 -4 -1z" />
</svg>
